<?xml version="1.0" encoding="utf-8"?>
<!-- Generator: Adobe Illustrator 23.0.3, SVG Export Plug-In . SVG Version: 6.00 Build 0)  -->
<svg version="1.1" id="Layer_1" xmlns="http://www.w3.org/2000/svg" xmlns:xlink="http://www.w3.org/1999/xlink" x="0px" y="0px"
	 viewBox="0 0 14 14" style="enable-background:new 0 0 14 14;" xml:space="preserve">
<style type="text/css">
	.st0{fill:#FFFFFF;}
</style>
<g>
	<path d="M14,7c0-3.865994-3.1340065-7-7-7S0,3.134006,0,7c0,3.4939022,2.5597992,6.3898258,5.90625,6.9149303V9.0234375H4.1289062
		V7H5.90625V5.4578128c0-1.7543778,1.0450583-2.7234378,2.6439934-2.7234378c0.7658768,0,1.5669441,0.1367188,1.5669441,0.1367188
		V4.59375H9.2344923c-0.8695593,0-1.1407423,0.5395832-1.1407423,1.0931659V7h1.9414062L9.7248049,9.0234375H8.09375v4.8914928
		C11.4402008,13.3898258,14,10.4939022,14,7z"/>
	<path class="st0" d="M9.7248049,9.0234375L10.0351562,7H8.09375V5.6869159c0-0.5535827,0.271183-1.0931659,1.1407423-1.0931659
		h0.8826952V2.8710938c0,0-0.8010674-0.1367188-1.5669441-0.1367188c-1.5989351,0-2.6439934,0.9690599-2.6439934,2.7234378V7
		H4.1289062v2.0234375H5.90625v4.8914928C6.2626376,13.9708529,6.6279097,14,7,14s0.7373624-0.0291471,1.09375-0.0850697V9.0234375
		H9.7248049z"/>
</g>
</svg>
